<svg width="48" height="41" viewBox="0 0 48 41" fill="none" xmlns="http://www.w3.org/2000/svg">
<path d="M35.1073 20.7007C36.9611 20.7007 38.4374 22.1106 38.4374 23.8179C38.4373 25.525 36.961 26.935 35.1073 26.9351C33.2536 26.9351 31.7774 25.525 31.7773 23.8179C31.7773 22.1106 33.2536 20.7007 35.1073 20.7007Z" stroke="black" stroke-width="0.5"/>
<path d="M40.8905 35.9908V34.5218C40.8905 31.3279 38.3013 28.7388 35.1074 28.7388C31.9135 28.7388 29.3243 31.3279 29.3243 34.5218V35.9908" stroke="black" stroke-width="0.5"/>
<path d="M0.5 39.5V1.5C0.5 0.947715 0.947715 0.5 1.5 0.5H16.0751C16.4037 0.5 16.7115 0.661531 16.8981 0.932075L20.9019 6.73459C21.0885 7.00514 21.3963 7.16667 21.7249 7.16667H45.5C46.0523 7.16667 46.5 7.61438 46.5 8.16667V39.5C46.5 40.0523 46.0523 40.5 45.5 40.5H1.5C0.947715 40.5 0.5 40.0523 0.5 39.5Z" stroke="black"/>
</svg>
